<svg xmlns="http://www.w3.org/2000/svg" viewBox="0 0 444.17 113.09"><defs><style>.a{fill:#22b3ae;}.b{fill:#25b4b0;}</style></defs><path class="a" d="M14.86,53.05A17.6,17.6,0,0,0,26.27,57.6c2.95,0,5.5-1.31,5.5-3.74,0-6.17-20.36-5.35-20.36-18.65,0-7.71,7-12.17,16-12.17,9.44,0,14,4.71,14,4.71L37.6,35.37A16,16,0,0,0,27.34,31.8c-2.71,0-5.34,1.13-5.34,3.73,0,5.83,20.36,5.11,20.36,18.41,0,6.9-6.07,12.41-16,12.41A23.56,23.56,0,0,1,10.1,60.27Z"></path><path class="a" d="M47.27,24h10v4.78a24.6,24.6,0,0,1-.17,2.85h.17c2.05-4.06,7.06-8.6,13.62-8.6,6.4,0,10.51,2.91,12.24,8.52h.16A16.39,16.39,0,0,1,97.6,23c8.7,0,13.7,4.86,13.7,15.74V65.37H100.88V40.72c0-4.7-.9-8.27-5.75-8.27-5.33,0-8.87,4.21-10.1,9.41a22.5,22.5,0,0,0-.49,5.35V65.37H74.11V40.72c0-4.46-.73-8.27-5.66-8.27-5.42,0-8.94,4.21-10.26,9.48a21.46,21.46,0,0,0-.49,5.28V65.37H47.27Z"></path><path class="a" d="M137.92,23C150.72,23,161,32,161,44.7s-10.27,21.65-23,21.65-23.07-8.92-23.07-21.65S125.2,23,137.92,23M138,57.59c6.74,0,12.4-5.19,12.4-12.89S144.74,31.8,138,31.8s-12.48,5.27-12.48,12.9S131.19,57.59,138,57.59"></path><path class="a" d="M214.39,12.74h10.18V24.66h9.52v8.19h-9.52V48.91c0,6.82,5.42,7.78,8.29,7.78a9.67,9.67,0,0,0,1.88-.16v9a18.43,18.43,0,0,1-3.2.24c-5.82,0-17.4-1.7-17.4-15.57Z"></path><path class="a" d="M239.12,7.79h10.43v20a33.43,33.43,0,0,1-.17,3.49h.17A16.15,16.15,0,0,1,264,23c9.28,0,14.53,4.78,14.53,15.74V65.37H268.18V40.88c0-5-1.31-8.43-6.65-8.43a11.75,11.75,0,0,0-11.33,8.6,18.43,18.43,0,0,0-.65,5.35v19H239.12Z"></path><path class="a" d="M279.73,24h11L298,51.18a33.93,33.93,0,0,1,.82,4.38H299s.41-2.19,1-4.38l7.72-27.09H317l7.72,27.09c.57,2.19.9,4.38.9,4.38h.16s.33-2.19.9-4.38L334,24h10.84L332.1,65.37H320.53l-7.06-23.6c-.66-2.19-1.07-4.46-1.07-4.46h-.16a35.28,35.28,0,0,1-1,4.46l-7.06,23.6H292.53Z"></path><path class="a" d="M369.52,39.42h1.4v-.57c0-5.43-3.45-7.3-8.05-7.3-6,0-11.49,4-11.49,4l-3.94-7.38A28.43,28.43,0,0,1,363.86,23c11,0,17.4,6,17.4,16.47V65.37h-9.6V62a26.65,26.65,0,0,1,.16-2.92h-.16c.08,0-3.21,7.3-12.73,7.3-7.47,0-14.2-4.62-14.2-12.9,0-13.14,18-14,24.79-14m-8,18.9c5.5,0,9.44-5.84,9.44-10.87v-1h-1.81c-5.33,0-13.95.73-13.95,6.49,0,2.76,2.05,5.35,6.32,5.35"></path><path class="a" d="M386.65,7.79H397V50.94c0,4.54,1.57,5.68,4.27,5.68a14.34,14.34,0,0,0,1.56-.09v9a24.36,24.36,0,0,1-3.28.24c-5.75,0-12.89-1.46-12.89-13.3Z"></path><path class="a" d="M406.5,7.79h10.35V50.94c0,4.54,1.56,5.68,4.27,5.68a14.27,14.27,0,0,0,1.55-.09v9a24.17,24.17,0,0,1-3.28.24c-5.74,0-12.89-1.46-12.89-13.3Z"></path><path class="a" d="M203.36,29l-.52,6.48-5.89,1a13.22,13.22,0,0,1,2.7,8.19c0,7.71-5.67,12.9-12.4,12.9s-12.47-5.19-12.47-12.9,5.66-12.9,12.47-12.9a12.31,12.31,0,0,1,4.21.75l6.32-1.19.26-5.91A25.23,25.23,0,0,0,187.17,23c-12.72,0-23,9-23,21.65s10.27,21.66,23.07,21.66,23-8.92,23-21.66A20.81,20.81,0,0,0,203.36,29"></path><path class="a" d="M430.62,7.85A8,8,0,0,1,438.53,16a7.88,7.88,0,1,1-15.75,0,8,8,0,0,1,7.84-8.12m0,14.73A6.36,6.36,0,0,0,436.91,16a6.26,6.26,0,1,0-12.51,0,6.34,6.34,0,0,0,6.22,6.61m-2.69-10.84h3.2a2.44,2.44,0,0,1,2.63,2.56,2.23,2.23,0,0,1-1.52,2.23v0a2.89,2.89,0,0,1,.28.47l1.59,3.09h-1.72l-1.55-3.24H429.5v3.24h-1.57Zm2.89,4a1.29,1.29,0,0,0,1.35-1.43,1.25,1.25,0,0,0-1.35-1.36H429.5v2.79Z"></path><path class="b" d="M190.93,91.59v6.18h-2.87V81.12h6.32a6.34,6.34,0,0,1,4.39,1.46,4.89,4.89,0,0,1,1.63,3.84,4.75,4.75,0,0,1-1.59,3.81,6.67,6.67,0,0,1-4.47,1.36Zm0-2.33h3.45a3.37,3.37,0,0,0,2.33-.72,2.69,2.69,0,0,0,.81-2.1,2.89,2.89,0,0,0-.82-2.16,3.17,3.17,0,0,0-2.24-.83h-3.53Z"></path><path class="b" d="M209.61,97.77a4.4,4.4,0,0,1-.31-1.16,4.59,4.59,0,0,1-6.24.32,3.41,3.41,0,0,1-1.17-2.63,3.51,3.51,0,0,1,1.46-3,7,7,0,0,1,4.17-1.06h1.69V89.4a2.18,2.18,0,0,0-.54-1.54,2.1,2.1,0,0,0-1.62-.58,2.38,2.38,0,0,0-1.54.48,1.46,1.46,0,0,0-.6,1.2h-2.76a3.08,3.08,0,0,1,.67-1.9,4.52,4.52,0,0,1,1.82-1.39,6.44,6.44,0,0,1,2.57-.5,5.12,5.12,0,0,1,3.44,1.09A3.91,3.91,0,0,1,212,89.33v5.58a6.34,6.34,0,0,0,.47,2.66v.2Zm-3-2a3.18,3.18,0,0,0,1.53-.4,2.76,2.76,0,0,0,1.09-1.08V92h-1.49a4,4,0,0,0-2.3.54,1.72,1.72,0,0,0-.77,1.52,1.62,1.62,0,0,0,.52,1.27A2.05,2.05,0,0,0,206.59,95.77Z"></path><path class="b" d="M221,87.94a5.91,5.91,0,0,0-1.12-.1,2.52,2.52,0,0,0-2.55,1.47v8.46h-2.76V85.4h2.63l.07,1.38a3.11,3.11,0,0,1,2.77-1.61,2.49,2.49,0,0,1,1,.16Z"></path><path class="b" d="M226.57,82.39v3h2.17v2.06h-2.17v6.9a1.5,1.5,0,0,0,.28,1,1.26,1.26,0,0,0,1,.32,4,4,0,0,0,1-.12v2.15A6.51,6.51,0,0,1,227,98q-3.18,0-3.18-3.54v-7h-2V85.4h2v-3Z"></path><path class="b" d="M235.64,91.47a7.32,7.32,0,0,1,.72-3.28,5.16,5.16,0,0,1,2-2.24,5.63,5.63,0,0,1,3-.78,5.36,5.36,0,0,1,4,1.61A6.37,6.37,0,0,1,247,91.06v.65a7.34,7.34,0,0,1-.7,3.27,5.2,5.2,0,0,1-2,2.23,5.74,5.74,0,0,1-3,.79,5.33,5.33,0,0,1-4.16-1.75,6.71,6.71,0,0,1-1.56-4.65Zm2.76.24a5,5,0,0,0,.78,3,2.72,2.72,0,0,0,4.35,0,5.51,5.51,0,0,0,.78-3.21,5,5,0,0,0-.8-3,2.69,2.69,0,0,0-4.32,0A5.44,5.44,0,0,0,238.4,91.71Z"></path><path class="b" d="M250.12,97.77V87.46h-1.87V85.4h1.87V84.27a3.92,3.92,0,0,1,4.31-4.3,6.65,6.65,0,0,1,1.54.2l-.07,2.18a4.68,4.68,0,0,0-1.05-.1c-1.32,0-2,.69-2,2v1.1h2.49v2.06h-2.49V97.77Z"></path><path class="b" d="M305.85,81.9a3.08,3.08,0,0,0-.27-.24c-.31-.23-.6-.48-.93-.68a8,8,0,0,0-4-1,17.1,17.1,0,0,0-3.84.34,9.06,9.06,0,0,0-2.63.88,1.6,1.6,0,0,0-.92,1.3c0,.25,0,.51,0,.76V97c0,.11,0,.23,0,.34a.52.52,0,0,0,.44.5,2.3,2.3,0,0,0,.26,0h3.5a.65.65,0,0,0,.74-.73V85.59c0-.38,0-.77,0-1.15a1.67,1.67,0,0,1,1.43-1.71,5.42,5.42,0,0,1,1.45-.09A2.07,2.07,0,0,1,303,84.13a4.37,4.37,0,0,1,.19,1.43c0,3.81,0,7.61,0,11.42,0,.11,0,.23,0,.34a.53.53,0,0,0,.44.51,2,2,0,0,0,.35,0h3.25c.76,0,.92-.16.92-.91V85.9a6.71,6.71,0,0,1,0-1.1,4.52,4.52,0,0,1,.33-1.14,1.74,1.74,0,0,1,1.18-.93,3.35,3.35,0,0,1,1.83,0,2.28,2.28,0,0,1,1.6,2.34c0,4,0,7.91,0,11.87v.23a.64.64,0,0,0,.71.7h3.55c.48,0,.69-.21.69-.69V95.75q0-5.48,0-11a4.28,4.28,0,0,0-.53-2,5,5,0,0,0-2.95-2.35,9.57,9.57,0,0,0-4.12-.35A7.85,7.85,0,0,0,305.85,81.9Z"></path><path class="b" d="M345.12,93.93h-.05l0-.16a16.18,16.18,0,0,0-.59-3.31q-1.44-4.66-2.9-9.32c-.19-.61-.36-.73-1-.74H337.1a2.19,2.19,0,0,0-.36,0,.51.51,0,0,0-.45.5,2.53,2.53,0,0,0,.15.82q3,8.12,6,16.21a2,2,0,0,1,0,1.6,9,9,0,0,1-.83,1.81,2.06,2.06,0,0,1-1.2.86,2.14,2.14,0,0,1-1.22-.2,5.75,5.75,0,0,0-1-.31,2.06,2.06,0,0,0-1.7.36,1.91,1.91,0,0,0-.58,2.1,2.19,2.19,0,0,0,1.61,1.57,6.94,6.94,0,0,0,3.17.18,6,6,0,0,0,3.82-2.16,10.31,10.31,0,0,0,1.82-3.35q2.89-8.26,5.77-16.55c.29-.84.59-1.68.85-2.54.18-.58-.11-.93-.71-.93-.95,0-1.89,0-2.84,0-.57,0-.77.16-.93.71l-2.16,7.36a34.42,34.42,0,0,0-1.06,4.23C345.25,93.12,345.19,93.53,345.12,93.93Z"></path><path class="b" d="M392.77,90h0v7.15c0,.46.21.69.65.69,1.22,0,2.45,0,3.67,0a.6.6,0,0,0,.67-.66,2.62,2.62,0,0,0,0-.28V86.61c0-.73,0-1.47,0-2.2A1.6,1.6,0,0,1,399,82.76a4.44,4.44,0,0,1,2.26,0A2.18,2.18,0,0,1,403,84.4a5,5,0,0,1,.12,1.16c0,3.8,0,7.61,0,11.42v.21c0,.49.23.68.72.68h3.56c.5,0,.7-.21.7-.71,0-4.1,0-8.19,0-12.29a4.29,4.29,0,0,0-.32-1.58,4.61,4.61,0,0,0-2.62-2.49,11.45,11.45,0,0,0-4.37-.81,21.89,21.89,0,0,0-4.35.34,9.64,9.64,0,0,0-2.56.8A1.89,1.89,0,0,0,392.77,83C392.78,85.32,392.77,87.67,392.77,90Z"></path><path class="b" d="M268,83.11V97a2.53,2.53,0,0,0,0,.38.51.51,0,0,0,.44.48,2.09,2.09,0,0,0,.36,0H272c.81,0,.94-.13.94-.94V83.38c0-.21,0-.28.27-.28.8,0,1.6,0,2.41,0a.53.53,0,0,0,.6-.55c0-.53,0-1.07,0-1.6a.49.49,0,0,0-.46-.5,2.19,2.19,0,0,0-.36,0c-.83,0-1.66,0-2.48,0a.32.32,0,0,1-.32-.18,5.44,5.44,0,0,1-.65-2.79,3.2,3.2,0,0,1,.32-1.42,1.24,1.24,0,0,1,1.31-.75c.21,0,.41.08.61.11a5.57,5.57,0,0,0,.82.1,1.58,1.58,0,0,0,1.56-1.13,1.87,1.87,0,0,0-1.29-2.4,4.44,4.44,0,0,0-2.11-.07A5.39,5.39,0,0,0,269.05,75a11.09,11.09,0,0,0-1,4.42c0,.33,0,.65,0,1h-.29c-.49,0-1,0-1.47,0s-.69.21-.71.65,0,.93,0,1.4a.58.58,0,0,0,.65.63H268Z"></path><path class="b" d="M367.38,95.07a2.21,2.21,0,0,1,.1-.24q3.06-6.43,6.13-12.85a5.2,5.2,0,0,0,.27-.69.61.61,0,0,0-.56-.86,1.51,1.51,0,0,0-.3,0h-10.5a1.29,1.29,0,0,0-.28,0,.58.58,0,0,0-.59.66c0,.45,0,.91,0,1.36a.59.59,0,0,0,.64.66h5.51l-.13.29q-3.1,6.44-6.22,12.85c-.11.24-.23.49-.32.74a.61.61,0,0,0,.49.83,1.81,1.81,0,0,0,.4,0h11.31a.63.63,0,0,0,.66-.72V95.81c0-.49-.2-.7-.68-.74h-5.93Z"></path><path class="b" d="M334.11,85V72.69a.57.57,0,0,0-.55-.57H330c-.65,0-.82.17-.83.83V97a1.37,1.37,0,0,0,0,.29c.05.42.22.59.64.59,1.21,0,2.43,0,3.65,0,.47,0,.68-.24.68-.71V85Z"></path><path class="b" d="M321.09,89.14v8c0,.52.2.73.72.73h3.48a1.65,1.65,0,0,0,.32,0,.53.53,0,0,0,.43-.47,2.19,2.19,0,0,0,0-.36V81.29a2.34,2.34,0,0,0,0-.38.52.52,0,0,0-.42-.45,1.9,1.9,0,0,0-.41,0c-.79,0-1.59,0-2.39,0-.35,0-.71,0-1.06,0s-.67.22-.67.69v8Z"></path><path class="b" d="M323.56,73.83a3.1,3.1,0,0,0-1.87.51,1.89,1.89,0,0,0-.05,3.12,3.5,3.5,0,0,0,3.83,0,1.86,1.86,0,0,0,0-3.13A3.18,3.18,0,0,0,323.56,73.83Z"></path><path class="b" d="M305.85,81.9a7.85,7.85,0,0,1,4.6-1.84,9.57,9.57,0,0,1,4.12.35,5,5,0,0,1,2.95,2.35,4.28,4.28,0,0,1,.53,2q0,5.48,0,11v1.43c0,.48-.21.69-.69.69h-3.55a.64.64,0,0,1-.71-.7v-.23c0-4,0-7.91,0-11.87a2.28,2.28,0,0,0-1.6-2.34,3.35,3.35,0,0,0-1.83,0,1.74,1.74,0,0,0-1.18.93,4.52,4.52,0,0,0-.33,1.14,6.71,6.71,0,0,0,0,1.1V97c0,.75-.16.91-.92.91H304a2,2,0,0,1-.35,0,.53.53,0,0,1-.44-.51c0-.11,0-.23,0-.34,0-3.81,0-7.61,0-11.42a4.37,4.37,0,0,0-.19-1.43A2.07,2.07,0,0,0,301,82.64a5.42,5.42,0,0,0-1.45.09,1.67,1.67,0,0,0-1.43,1.71c0,.38,0,.77,0,1.15V97.14a.65.65,0,0,1-.74.73h-3.5a2.3,2.3,0,0,1-.26,0,.52.52,0,0,1-.44-.5c0-.11,0-.23,0-.34V83.27c0-.25,0-.51,0-.76a1.6,1.6,0,0,1,.92-1.3,9.06,9.06,0,0,1,2.63-.88,17.1,17.1,0,0,1,3.84-.34,8,8,0,0,1,4,1c.33.2.62.45.93.68A3.08,3.08,0,0,1,305.85,81.9Z"></path><path class="b" d="M345.12,93.93c.07-.4.13-.81.2-1.21a34.42,34.42,0,0,1,1.06-4.23l2.16-7.36c.16-.55.36-.71.93-.71.95,0,1.89,0,2.84,0,.6,0,.89.35.71.93-.26.86-.56,1.7-.85,2.54q-2.88,8.28-5.77,16.55a10.31,10.31,0,0,1-1.82,3.35,6,6,0,0,1-3.82,2.16,6.94,6.94,0,0,1-3.17-.18A2.19,2.19,0,0,1,336,104.2a1.91,1.91,0,0,1,.58-2.1,2.06,2.06,0,0,1,1.7-.36,5.75,5.75,0,0,1,1,.31,2.14,2.14,0,0,0,1.22.2,2.06,2.06,0,0,0,1.2-.86,9,9,0,0,0,.83-1.81,2,2,0,0,0,0-1.6q-3-8.08-6-16.21a2.53,2.53,0,0,1-.15-.82.51.51,0,0,1,.45-.5,2.19,2.19,0,0,1,.36,0h3.46c.63,0,.8.13,1,.74q1.45,4.66,2.9,9.32a16.18,16.18,0,0,1,.59,3.31l0,.16Z"></path><path class="b" d="M392.77,90c0-2.35,0-4.7,0-7a1.89,1.89,0,0,1,1.11-1.84,9.64,9.64,0,0,1,2.56-.8,21.89,21.89,0,0,1,4.35-.34,11.45,11.45,0,0,1,4.37.81,4.61,4.61,0,0,1,2.62,2.49,4.29,4.29,0,0,1,.32,1.58c0,4.1,0,8.19,0,12.29,0,.5-.2.71-.7.71h-3.56c-.49,0-.69-.19-.72-.68V97c0-3.81,0-7.62,0-11.42A5,5,0,0,0,403,84.4a2.18,2.18,0,0,0-1.7-1.67,4.44,4.44,0,0,0-2.26,0,1.6,1.6,0,0,0-1.27,1.65c0,.73,0,1.47,0,2.2V96.92a2.62,2.62,0,0,1,0,.28.6.6,0,0,1-.67.66c-1.22,0-2.45,0-3.67,0-.44,0-.65-.23-.65-.69V90Z"></path><path class="b" d="M291.12,85.53a8.71,8.71,0,0,0-.05-1,4.54,4.54,0,0,0-1.85-3.3A6.88,6.88,0,0,0,285.17,80a13.3,13.3,0,0,0-2.82.21,8.39,8.39,0,0,0-3.28,1.24,4.11,4.11,0,0,0-1.72,2.11,1.9,1.9,0,0,0,.59,2.16,2.62,2.62,0,0,0,3.16-.2,2.92,2.92,0,0,0,.58-1,2.73,2.73,0,0,1,2.27-2,2,2,0,0,1,2.32,1.76,25,25,0,0,1,0,2.74l-.23,0c-1.38.32-2.76.59-4.12,1a9.49,9.49,0,0,0-3.69,1.8,4.54,4.54,0,0,0-1.72,4.23,3.87,3.87,0,0,0,1.9,2.93A9.58,9.58,0,0,0,283,98.25a15.81,15.81,0,0,0,3.3-.08,13,13,0,0,0,2.9-.64,2.67,2.67,0,0,0,2-2.78C291.12,91.68,291.12,88.6,291.12,85.53Zm-4.79,3.87c0,1.53,0,3.06,0,4.58a1.49,1.49,0,0,1-1.24,1.64,3.32,3.32,0,0,1-2.82-.42,2.4,2.4,0,0,1-1-1.92,3.16,3.16,0,0,1,1.92-3.18,11,11,0,0,1,2.85-.89l.23,0h.08Z"></path><path class="b" d="M424.76,91.61a1.1,1.1,0,0,0-1.26.36c-.15.16-.27.35-.41.52a4.75,4.75,0,0,1-4,2,4.11,4.11,0,0,1-2.67-1,5.78,5.78,0,0,1-1.72-3.71l.17,0,4-.64,5.34-.86a1.14,1.14,0,0,0,1.1-1.31,6.74,6.74,0,0,0-.09-1.19,6.44,6.44,0,0,0-3.92-5.1,7.81,7.81,0,0,0-4.75-.43A7.29,7.29,0,0,0,411,84.42a10.21,10.21,0,0,0-.86,3.69,13.43,13.43,0,0,0,.49,4.72,7.16,7.16,0,0,0,3.52,4.49,8.42,8.42,0,0,0,5.28.89,7.14,7.14,0,0,0,4.87-2.81,4.78,4.78,0,0,0,1.05-2.66A1.09,1.09,0,0,0,424.76,91.61ZM414.41,87.3c0-.39.07-.79.14-1.19a5.26,5.26,0,0,1,1-2.42,2.86,2.86,0,0,1,3.8-.62,2.72,2.72,0,0,1,.84,1,5,5,0,0,1,.48,2c0,.1,0,.17-.13.2l-6.06,1Z"></path><path class="b" d="M268,83.11H266.2a.58.58,0,0,1-.65-.63c0-.47,0-.94,0-1.4s.25-.64.71-.65,1,0,1.47,0H268c0-.35,0-.67,0-1a11.09,11.09,0,0,1,1-4.42,5.39,5.39,0,0,1,4.11-3.11,4.44,4.44,0,0,1,2.11.07,1.87,1.87,0,0,1,1.29,2.4A1.58,1.58,0,0,1,275,75.49a5.57,5.57,0,0,1-.82-.1c-.2,0-.4-.09-.61-.11a1.24,1.24,0,0,0-1.31.75,3.2,3.2,0,0,0-.32,1.42,5.44,5.44,0,0,0,.65,2.79.32.32,0,0,0,.32.18c.82,0,1.65,0,2.48,0a2.19,2.19,0,0,1,.36,0,.49.49,0,0,1,.46.5c0,.53,0,1.07,0,1.6a.53.53,0,0,1-.6.55c-.81,0-1.61,0-2.41,0-.23,0-.27.07-.27.28V96.93c0,.81-.13.94-.94.94h-3.18a2.09,2.09,0,0,1-.36,0,.51.51,0,0,1-.44-.48,2.53,2.53,0,0,1,0-.38V83.11Z"></path><path class="b" d="M367.38,95.07h5.93c.48,0,.67.25.68.74v1.33a.63.63,0,0,1-.66.72H362a1.81,1.81,0,0,1-.4,0,.61.61,0,0,1-.49-.83c.09-.25.21-.5.32-.74q3.1-6.42,6.22-12.85l.13-.29h-5.51a.59.59,0,0,1-.64-.66c0-.45,0-.91,0-1.36a.58.58,0,0,1,.59-.66,1.29,1.29,0,0,1,.28,0H373a1.51,1.51,0,0,1,.3,0,.61.61,0,0,1,.56.86,5.2,5.2,0,0,1-.27.69q-3.06,6.42-6.13,12.85A2.21,2.21,0,0,0,367.38,95.07Z"></path><path class="b" d="M334.11,85V97.15c0,.47-.21.71-.68.71-1.22,0-2.44,0-3.65,0-.42,0-.59-.17-.64-.59a1.37,1.37,0,0,1,0-.29v-24c0-.66.18-.83.83-.83h3.61a.57.57,0,0,1,.55.57V85Z"></path><path class="b" d="M321.09,89.14v-8c0-.47.2-.68.67-.69s.71,0,1.06,0c.8,0,1.6,0,2.39,0a1.9,1.9,0,0,1,.41,0,.52.52,0,0,1,.42.45,2.34,2.34,0,0,1,0,.38V97a2.19,2.19,0,0,1,0,.36.53.53,0,0,1-.43.47,1.65,1.65,0,0,1-.32,0h-3.48c-.52,0-.72-.21-.72-.73v-8Z"></path><path class="b" d="M323.56,73.83a3.18,3.18,0,0,1,1.88.51,1.86,1.86,0,0,1,0,3.13,3.5,3.5,0,0,1-3.83,0,1.89,1.89,0,0,1,.05-3.12A3.1,3.1,0,0,1,323.56,73.83Z"></path><path class="b" d="M390.29,85.67a7.69,7.69,0,0,0-3.9-4.79,8.76,8.76,0,0,0-5.47-.77,7.41,7.41,0,0,0-5.8,4.28,10.29,10.29,0,0,0-1,4,11.71,11.71,0,0,0,.66,4.73,7.51,7.51,0,0,0,4.38,4.59,9.13,9.13,0,0,0,4.8.46,7.47,7.47,0,0,0,5.78-4.25,11,11,0,0,0,1-5.1A10.47,10.47,0,0,0,390.29,85.67Zm-4.64,4.71a9.36,9.36,0,0,1-.57,3A3.1,3.1,0,0,1,383.84,95a2.51,2.51,0,0,1-3.4-.72,6,6,0,0,1-1-2.57c-.14-1-.21-1.91-.31-2.87h.06A12.68,12.68,0,0,1,379.7,85a4.17,4.17,0,0,1,.81-1.51,2.47,2.47,0,0,1,3.91.16,5.79,5.79,0,0,1,1,2.46A16.29,16.29,0,0,1,385.65,90.38Z"></path></svg>